# xmcd
#
# Track frame offsets: 
#        183
#        16278
#        26578
#        39088
#        48365
#        58803
#        71313
#        85860
#        100503
#        112825
#        124403
#        132978
#        143298
#        153443
#        164408
#        173875
#        184195
#        201773
#        208988
#        219618
#        227843
#        236835
#        246093
#        261663
#        270878
#        281380
#        288635
#        305470
#        316070
#
# Disc length: 4414 seconds
#
# Revision: 1
# Processed by: cddbd v1.5.2PL0 Copyright (c) Steve Scherf et al.
# Submitted via: ExactAudioCopy v1.0b3
#
DISCID=9d113c1d
DTITLE=Dick Rivers - The Dick N' Roll Machine
DYEAR=1972
DGENRE=Rock
TTITLE0=Money
TTITLE1=JB Good
TTITLE2=Lonely Blue Boy
TTITLE3=Rip It Up
TTITLE4=Good Golly Miss Molly
TTITLE5=My Baby
TTITLE6=Jenny Jenny
TTITLE7=Not Fade Away
TTITLE8=Heartbreak Hotel
TTITLE9=Mystery Train
TTITLE10=Sweet Little 16
TTITLE11=Any Way You Want Me
TTITLE12=Baby Let's Play House
TTITLE13=Whole Lotta Shaking Goin' On
TTITLE14=Send Me Some Lovin'
TTITLE15=Hold On
TTITLE16=When The Plane
TTITLE17=Baby I Don't Care
TTITLE18=That's All Right Mama
TTITLE19=Blueberry Hill
TTITLE20=Twenty Flight Rock
TTITLE21=It's Been Nice
TTITLE22=Fever
TTITLE23=Party
TTITLE24=One Night
TTITLE25=Great Balls Of Fire
TTITLE26=All I Have To Do Is Dream and Donna
TTITLE27=Slippin' And Slidin'
TTITLE28=I Got A Woman
EXTD=
EXTT0=
EXTT1=
EXTT2=
EXTT3=
EXTT4=
EXTT5=
EXTT6=
EXTT7=
EXTT8=
EXTT9=
EXTT10=
EXTT11=
EXTT12=
EXTT13=
EXTT14=
EXTT15=
EXTT16=
EXTT17=
EXTT18=
EXTT19=
EXTT20=
EXTT21=
EXTT22=
EXTT23=
EXTT24=
EXTT25=
EXTT26=
EXTT27=
EXTT28=
PLAYORDER=
